<?xml version="1.0" encoding="utf-8"?>
<!-- Generator: Adobe Illustrator 22.1.0, SVG Export Plug-In . SVG Version: 6.00 Build 0)  -->
<svg version="1.1" id="레이어_1" xmlns="http://www.w3.org/2000/svg" xmlns:xlink="http://www.w3.org/1999/xlink" x="0px"
	 y="0px" viewBox="0 0 512 511" style="enable-background:new 0 0 512 511;" xml:space="preserve">
<style type="text/css">
	.st0{fill:#FF5516;}
</style>
<path class="st0" d="M380.6,205l30.1-1.9c0.1,0,0.1,0,0.2,0c21.4-1.8,40.7-13,52.8-30.8l23.8-34.9C508.1,107,516.1,70.3,510,34.1
	c-1.2-7.1-4.8-13.7-10.2-18.5c-5.4-4.8-12.3-7.6-19.6-8c-36.7-1.8-72.2,10.6-99.8,34.8l-31.8,27.8c-16.2,14.2-25,34.6-24.3,56.1
	c0,0.1,0,0.1,0,0.2l1.7,30.1c0.7,11.7-3.6,23.3-11.8,31.7L65.9,443.5c-6.6,6.9-10.1,16.4-9.7,26.8c0.5,11.4,5.7,22.6,14,29.9
	c7.5,6.6,17.8,10.4,28.1,10.4c1.1,0,2.2,0,3.3-0.1c10.3-0.8,19.4-5.4,25.5-12.8l223.5-277.1C357.9,211.4,368.9,205.8,380.6,205z
	 M338.6,210.9L115.1,488c-3.4,4.2-8.7,6.7-14.8,7.2c-7.3,0.6-14.7-1.8-20-6.5c-5.2-4.6-8.5-11.8-8.8-19c-0.3-6.1,1.7-11.6,5.4-15.5
	l248.3-255.1c11.1-11.5,17-27.3,16.1-43.3l-1.7-30c-0.6-16.8,6.4-32.8,19-43.9L390.4,54c24.7-21.6,56.3-32.6,89-31
	c3.7,0.2,7.3,1.6,10.1,4.1c2.8,2.5,4.7,5.9,5.3,9.5c5.5,32.3-1.7,65-20.1,92.1l-23.8,34.9c-9.5,13.9-24.5,22.7-41.3,24.2l-30,1.9
	C363.6,190.7,348.7,198.4,338.6,210.9z"/>
<path class="st0" d="M497.8,441.6L331.3,289.9c-3.1-2.9-8-2.6-10.8,0.5c-2.9,3.1-2.6,8,0.5,10.8l166.5,151.6c4,3.7,6.2,9.1,6.3,15.2
	c0.1,7.3-2.7,14.6-7.7,19.5c-4.9,4.9-12.2,7.8-19.5,7.7c-6.1-0.1-11.5-2.4-15.1-6.3L303,326.1c-2.9-3.1-7.7-3.4-10.8-0.5
	c-3.1,2.9-3.4,7.7-0.5,10.8l148.4,162.9c6.5,7.1,15.8,11.1,26.2,11.3c0.3,0,0.5,0,0.8,0c11.1,0,22.2-4.5,29.9-12.2
	c7.8-7.8,12.4-19.3,12.2-30.7C508.9,457.4,504.9,448.1,497.8,441.6z"/>
<path class="st0" d="M92.6,203.6c12.7,11.7,29.2,18.4,46.5,18.8c0.1,0,0.1,0,0.2,0l30.1,0.1c11.8,0,23,5,31,13.7l13.3,14.6
	c1.5,1.7,3.6,2.5,5.7,2.5c1.8,0,3.7-0.7,5.2-2c3.1-2.9,3.4-7.7,0.5-10.8l-13.3-14.6c-10.8-11.8-26.2-18.6-42.2-18.7l-30.1-0.1
	c-13.4-0.3-26.1-5.5-36-14.4L16,88.8c-0.9-1.1-0.8-2.6,0.2-3.6c0.7-0.7,1.5-0.8,1.9-0.8s1.2,0.1,1.9,0.8l79.5,79.5
	c7.9,7.9,20.6,7.9,28.5,0l9.3-9.3v0l16.6-16.6c0,0,0,0,0,0l0,0l9.3-9.3c7.9-7.9,7.9-20.6,0-28.5L83.7,21.4c-1-1-1-2.7,0-3.7
	c1-1,2.5-1,3.6-0.2l103.8,87.4c9,9.9,14.1,22.7,14.4,36l0.1,30.1c0.1,16,6.9,31.4,18.7,42.3l14.2,13c3.1,2.9,8,2.6,10.8-0.5
	c2.9-3.1,2.6-8-0.5-10.8l-14.2-12.9c-8.7-7.9-13.6-19.2-13.7-31l-0.1-30.1c0-0.1,0-0.1,0-0.2c-0.4-17.3-7.1-33.8-18.8-46.5
	c-0.2-0.2-0.5-0.5-0.7-0.7L97.2,5.8c-7.2-6.1-17.7-5.6-24.3,1c-7,7-7,18.4,0,25.5l79.5,79.5c1.9,1.9,1.9,4.9,0,6.8l-3.9,3.9
	L59.8,33.9c-3-3-7.9-3-10.9,0c-3,3-3,7.9,0,10.9l88.6,88.6l-5.7,5.7L43.2,50.5c-3-3-7.9-3-10.9,0c-3,3-3,7.9,0,10.9l88.6,88.6
	l-3.9,3.9c-1.9,1.9-4.9,1.9-6.8,0L30.8,74.3c-3.4-3.4-7.9-5.3-12.7-5.3s-9.3,1.9-12.7,5.3c-6.7,6.7-7.1,17.1-1,24.3l87.7,104.2
	C92.1,203.1,92.4,203.4,92.6,203.6z"/>
</svg>
