<?xml version="1.0" encoding="utf-8"?>
<!-- Generator: Adobe Illustrator 22.1.0, SVG Export Plug-In . SVG Version: 6.00 Build 0)  -->
<svg version="1.1" id="레이어_1" xmlns="http://www.w3.org/2000/svg" xmlns:xlink="http://www.w3.org/1999/xlink" x="0px"
	 y="0px" viewBox="0 0 511 483" style="enable-background:new 0 0 511 483;" xml:space="preserve">
<style type="text/css">
	.st0{fill:#91D081;}
</style>
<path class="st0" d="M469.4,379.4l-5.6-1.3c53.9-44.1,65.4-142.2,14.6-193.2c-19.5-19.6-31.2-50.7-31.2-83.2
	c0-47-30.9-85.3-68.9-85.3c-38,0-68.9,38.3-68.9,85.3c0,10.7-1.3,21.2-3.7,31.2c-35.4-40.9-91.7-45.6-129.3-19.4V17.7
	c0-4.2-3.4-7.5-7.5-7.5c-4.2,0-7.5,3.4-7.5,7.5v29.6C138.9,6.7,98-4.2,52.2,5c-4.6,0.9-7.3,5.9-5.5,10.2c0.4,1,10.6,25.5,30.2,46.9
	c23.2,25.3,52,37.9,84.5,28.9v22.5C117.2,82.8,43.1,93.9,12.7,163.9c-1.7,3.8,0.1,8.2,3.9,9.9c3.8,1.7,8.2-0.1,9.9-3.9
	c27.8-64.1,94.4-69.3,129.7-41.5c7.3,6.2,18.1,6.2,25.4,0c40.2-31.6,109.7-17.9,133.5,51.4c12.8,37.3,10.2,76.3-12,116.7
	c-8.8,15.8-16.1,29-22.1,39.9c-46.6-10-53.3-13.7-69.1-13.4c-4.2,0.1-7.5,3.5-7.4,7.7c0.1,4.2,3.5,7.5,7.7,7.4
	c2.7-0.1,5.8,0.1,9.1,0.5l-4.5,40.5c-0.5,4.1,2.5,7.9,6.6,8.3c4.1,0.5,7.9-2.5,8.3-6.6l4.4-39.2c30.1,6.9,49.6,11.3,73,16.7
	l-2.2,19.3c-0.5,4.1,2.5,7.9,6.6,8.3c4.1,0.5,7.9-2.5,8.3-6.7l2-17.6c4.7,1.1,111.5,25.5,112.8,25.8l-5.8,52.2
	c-0.5,4.1,2.5,7.9,6.6,8.3c4.2,0.5,7.9-2.5,8.3-6.6l5.6-50.5l14.6,3.3c18.1,4.1,30.1,21,28,39.4c-2,18.4-17.5,32.2-36,32.3
	l-77.1,0.1l2.7-24.5c0.5-4.1-2.5-7.9-6.6-8.3c-4.1-0.5-7.9,2.5-8.3,6.6l-2.9,26.2l-73.8,0.1l2.6-23.1c0.5-4.1-2.5-7.9-6.6-8.3
	c-4.1-0.5-7.9,2.5-8.3,6.6c-0.6,5.8-2.7,24.2-2.8,24.8l-35.4,0.1L246,426c0.5-4.1-2.5-7.9-6.6-8.3c-4.1-0.5-7.9,2.5-8.3,6.6
	l-4.7,41.9c-0.1,0-0.1,0-0.2,0c0,0,0,0,0,0c0,0,0,0,0,0c0,0,0,0,0,0c0,0,0,0,0,0c-0.5,0-2.8,0-12.5,0c-29.5,0-54.9-20.2-62.1-48
	c-7.4-28.4,5.5-60.2,34.7-74.1c3.8-1.8,5.4-6.3,3.6-10c-1.8-3.8-6.3-5.4-10-3.6c-14.7,7-26.5,17.9-34.4,31.4
	c-15.2-7.6-32.7-19.6-42-37.2c-12-22.8-46.7-14.2-46.8,11.5L33,293.5c-16.2-29.4-22.1-62.3-15.1-96.4c0.8-4.1-1.8-8.1-5.9-8.9
	c-4.1-0.8-8.1,1.8-8.9,5.9c-7.5,36.5-1.8,73.2,16.6,106.7L52,359.2l-23.6-2.6C14.8,355,2.5,364.8,1,378.5
	c-1.5,13.6,8.3,25.9,21.9,27.4l39,4.3c-9.7,8.7-17.5,16.5-16.5,28.9c1.7,21.9,29.2,31,43.6,14.2c11.8-13.9,30.4-22.4,49.1-27
	c10.2,31.9,40.1,55,75.4,55c11.5,0,230.6-0.4,244.5-0.5c28.5-0.1,51.3-23.1,51.3-51.4C509.3,405.4,492.9,384.8,469.4,379.4z
	 M64.7,18.2c50.1-6.8,81.6,17,92.2,58.5C116.1,87.6,84.1,55.4,64.7,18.2z M444.2,373.7l-147.9-33.8c4.3-7.8,9-16.5,14.3-26
	c13.9,24,39.9,40.2,69.6,40.2c38.2,0,71.4-27.2,78.9-64.6c0.8-4.1-1.8-8-5.9-8.8c-4.1-0.8-8,1.8-8.9,5.9
	c-6.1,30.4-33,52.5-64.1,52.5c-27.5,0-51.1-17.1-60.7-41.2c12.5-23.8,18.5-49,18.3-73.9c37.8-32.3,96-11.9,106.3,35.8
	c0.9,4.1,4.9,6.6,9,5.8c4.1-0.9,6.6-4.9,5.8-9c-3.8-17.7-13.7-33.7-27.8-45.2c-26.8-21.8-65-24.3-94.5-5.2
	c-2.5-19.8-9.1-40.4-19.6-57.6c4.8-14.6,7.4-30.4,7.4-46.8c0-34.7,21.6-70.2,53.9-70.2c31.9,0,53.9,35,53.9,70.2
	c0,36.9,13,71,35.6,93.8c39.2,39.4,35.4,112.6,1.4,155.7C461.7,360.6,453.3,368.2,444.2,373.7z M135,411.5
	c-21.4,5.2-43.1,15.5-57.3,32.1c-3.5,4.1-9.7,4.6-13.8,1.1c-4.1-3.5-4.6-9.7-1.1-13.8c6.6-7.7,14.4-14.3,22.8-19.7
	c5.9-3.8,3.8-13-3.3-13.8c-6.5-0.7-52.8-5.9-57.7-6.4c-5.3-0.6-9.2-5.4-8.6-10.8c0.6-5.3,5.3-9.2,10.8-8.6c0,0,0.1,0,0.1,0
	c0,0,0,0,0,0c0,0,0.1,0,0.2,0c0,0,0,0,0,0c0.1,0,0.1,0,0.2,0c0,0-0.1,0-0.1,0c1.5,0.2,10.5,1.2,52.1,5.8c2.4-0.2,9.7,2.9,12.9-3.6
	c1.4-2.9,0.8-6.3-1.4-8.6c-7.3-7.5-13.3-15.6-17.9-24.2c-2.5-4.8-0.7-10.7,4.1-13.2h0c4.8-2.5,10.7-0.7,13.2,4.1
	c11.1,21,31.4,35,48.9,43.7C135,386.8,133.5,399.4,135,411.5z"/>
</svg>
